<svg xmlns="http://www.w3.org/2000/svg" width="30.796" height="28.303" viewBox="0 0 30.796 28.303"><defs><style>.a{fill:#7f8fa4;}</style></defs><path class="a" d="M29.878,15.921H16.445l8.946,8.736a.924.924,0,0,0,1.256.038,13.14,13.14,0,0,0,4.14-7.787.894.894,0,0,0-.909-.987Zm-.9-3.582A13.462,13.462,0,0,0,16.349,0,.9.9,0,0,0,15.4.9v12.37H28.066a.9.9,0,0,0,.917-.929Zm-16.3,3.582V2.8a.9.9,0,0,0-1.01-.888A13.352,13.352,0,0,0,.008,15.5a13.652,13.652,0,0,0,21.407,10.37.865.865,0,0,0,.089-1.331Z" transform="translate(0 0)"/></svg>