<svg xmlns="http://www.w3.org/2000/svg" width="27.05" height="32.869" viewBox="0 0 27.05 32.869"><defs><style>.a{fill:#012e40;}.b{fill:#e9812d;}.c{fill:#fff;font-size:13px;font-family:Roboto-Medium, Roboto;font-weight:500;}</style></defs><g transform="translate(-1593.95 -29)"><path class="a" d="M11.775,28.369a3.458,3.458,0,0,0,3.363-3.546H8.412A3.458,3.458,0,0,0,11.775,28.369Zm11.322-8.3c-1.016-1.15-2.916-2.881-2.916-8.549a8.644,8.644,0,0,0-6.725-8.6,1.683,1.683,0,0,0-3.362,0,8.644,8.644,0,0,0-6.725,8.6c0,5.668-1.9,7.4-2.916,8.549A1.784,1.784,0,0,0,0,21.277,1.732,1.732,0,0,0,1.687,23.05H21.863a1.732,1.732,0,0,0,1.687-1.773,1.783,1.783,0,0,0-.453-1.2Z" transform="translate(1593.95 33.5)"/><g transform="translate(409.422 8)"><circle class="b" cx="9" cy="9" r="9" transform="translate(1193.578 22)"/><text class="c" transform="translate(1198.578 35)"><tspan x="0" y="0">4</tspan></text></g></g></svg>