<svg xmlns="http://www.w3.org/2000/svg" width="20.564" height="28.925" viewBox="0 0 20.564 28.925"><defs><style>.a{fill:#7f8fa4;}</style></defs><path class="a" d="M5.612,25.668a1.766,1.766,0,0,0,.313,1l1,1.451a1.887,1.887,0,0,0,1.556.807h3.605a1.887,1.887,0,0,0,1.556-.807l1-1.451a1.765,1.765,0,0,0,.313-1l0-2.167H5.609l0,2.167ZM0,9.943a9.7,9.7,0,0,0,2.545,6.541,16.113,16.113,0,0,1,3.05,5.166c0,.015,0,.029.006.044h9.361c0-.015,0-.029.006-.044a16.113,16.113,0,0,1,3.05-5.166,9.7,9.7,0,0,0,2.545-6.541A10.118,10.118,0,0,0,10.25,0,10.071,10.071,0,0,0,0,9.943ZM10.282,5.423A4.6,4.6,0,0,0,5.608,9.943a.935.935,0,0,1-1.869,0,6.445,6.445,0,0,1,6.543-6.327.9.9,0,1,1,0,1.808Z" transform="translate(0 0)"/></svg>