<svg xmlns="http://www.w3.org/2000/svg" width="20.953" height="21.852" viewBox="0 0 20.953 21.852"><defs><style>.a{fill:#a1a6b0;}</style></defs><path class="a" d="M20.668,18.892l-4.08-4.255a.961.961,0,0,0-.7-.3h-.667a9.076,9.076,0,0,0,1.8-5.462A8.7,8.7,0,0,0,8.513,0,8.7,8.7,0,0,0,0,8.876a8.7,8.7,0,0,0,8.513,8.876,8.253,8.253,0,0,0,5.239-1.878v.7a1.046,1.046,0,0,0,.286.725l4.08,4.255a.95.95,0,0,0,1.387,0l1.158-1.208a1.06,1.06,0,0,0,0-1.451ZM8.513,14.339A5.351,5.351,0,0,1,3.274,8.876,5.351,5.351,0,0,1,8.513,3.414a5.351,5.351,0,0,1,5.239,5.462A5.351,5.351,0,0,1,8.513,14.339Z"/></svg>